HIERARCHY
ROOT Hips
{
  OFFSET -125.267 89.498 -143.301
  CHANNELS 6 Xposition Yposition Zposition Zrotation Xrotation Yrotation
  JOINT RightUpLeg
  {
    OFFSET -8.9458 -8.66707 0.101652
    CHANNELS 3 Zrotation Xrotation Yrotation
    JOINT RightLeg
    {
      OFFSET 0 -44.4227 1.3727
      CHANNELS 3 Zrotation Xrotation Yrotation
      JOINT RightFoot
      {
        OFFSET 0.253549 -42.0924 -1.46059
        CHANNELS 3 Zrotation Xrotation Yrotation
        JOINT RightToes
        {
          OFFSET 0.04 -4.41509 8.4991
          CHANNELS 3 Zrotation Xrotation Yrotation
          End Site
          {
            OFFSET -0.08 -0.137448 9.77979
          }
        }
      }
    }
  }
  JOINT Spine
  {
    OFFSET 0 11.8905 0
    CHANNELS 3 Zrotation Xrotation Yrotation
    JOINT Spine1
    {
      OFFSET 0 25.6574 0.127663
      CHANNELS 3 Zrotation Xrotation Yrotation
      JOINT HEad
      {
        OFFSET 0 8.73416 0.011341
        CHANNELS 3 Zrotation Xrotation Yrotation
        End Site
        {
          OFFSET -0.29 12.7742 2.51395
        }
      }
      JOINT LeftShoulder1
      {
        OFFSET 8.99 -0.362252 -0.22
        CHANNELS 3 Zrotation Xrotation Yrotation
        JOINT LeftArm
        {
          OFFSET 10.2827 -0.00338 0.322123
          CHANNELS 3 Zrotation Xrotation Yrotation
          JOINT LeftForeArm
          {
            OFFSET 32.7669 0.099144 -1.42434
            CHANNELS 3 Zrotation Xrotation Yrotation
            JOINT LeftHand
            {
              OFFSET 27.5643 0.085362 1.02216
              CHANNELS 3 Zrotation Xrotation Yrotation
              End Site
              {
                OFFSET 16.7443 -0.6 1.50291
              }
            }
          }
        }
      }
      JOINT RightShoulder
      {
        OFFSET -8.99 -0.362252 -0.22
        CHANNELS 3 Zrotation Xrotation Yrotation
        JOINT RightArm
        {
          OFFSET -10.2827 -0.00338 0.322123
          CHANNELS 3 Zrotation Xrotation Yrotation
          JOINT RightForeArm
          {
            OFFSET -32.8971 0.099144 -1.42434
            CHANNELS 3 Zrotation Xrotation Yrotation
            JOINT RightHand
            {
              OFFSET -27.4921 0.085362 1.02216
              CHANNELS 3 Zrotation Xrotation Yrotation
              End Site
              {
                OFFSET -16.6312 -0.6 1.50291
              }
            }
          }
        }
      }
    }
  }
  JOINT LeftUpLeg
  {
    OFFSET 8.9458 -8.66707 0.101652
    CHANNELS 3 Zrotation Xrotation Yrotation
    JOINT LeftLeg
    {
      OFFSET 0 -44.4227 1.3727
      CHANNELS 3 Zrotation Xrotation Yrotation
      JOINT LeftFoot
      {
        OFFSET -0.253549 -42.0924 -1.46059
        CHANNELS 3 Zrotation Xrotation Yrotation
        JOINT LeftToes
        {
          OFFSET -0.04 -4.41509 8.4991
          CHANNELS 3 Zrotation Xrotation Yrotation
          End Site
          {
            OFFSET 0.08 -0.047448 9.77979
          }
        }
      }
    }
  }
}
MOTION
Frames:	22
Frame Time:	0.0166667
-126.781 89.1973 -131.425 -10.7089 -4.71012 -47.8164 -14.9671 -18.8977 -2.48526 4.59597 40.0935 14.1511 29.2931 18.3716 -6.75776 -35.7547 -41.733 32.5656 0.224063 13.1172 1.46373 0.0537671 26.6973 3.24232 -2.66712 -19.0974 35.814 -3.18055e-015 3.18055e-015 -0 -54.9541 -49.5263 -26.2663 -56.0744 6.8422 -53.0521 -20.2014 18.0012 -38.7249 10.7038 3.9146 25.1212 75.8449 -28.9315 79.1618 41.2641 60.2769 79.7981 -14.9478 9.63165 -2.13538 33.1243 -2.49496 -9.17072 -1.40462 16.2786 14.8529 -13.1423 21.6869 3.21946 -4.47218 -17.3141 1.73525 
-126.891 90.1121 -132.517 -10.231 -4.78331 -46.1164 -15.6808 -16.8057 -1.15738 4.86776 41.4996 9.71254 26.3182 18.967 -6.1827 -35.0817 -40.5801 31.9215 0.842315 13.0108 1.3695 -0.132999 26.4219 3.19815 -2.28347 -16.4665 33.0737 -1.59028e-015 4.77083e-015 3.18055e-015 -62.0825 -47.1848 -27.8928 -56.916 11.202 -51.9633 -18.0764 17.2891 -39.3506 11.0699 3.90438 24.4526 77.5581 -28.57 81.0721 45.6478 58.6 71.0554 -14.5364 8.76429 5.16634 32.5547 -4.4708 -8.01121 -1.57439 16.597 13.1759 -13.9425 24.4078 3.74469 -4.57121 -16.9114 -0.740477 
-127.043 90.6035 -133.662 -9.82804 -5.31452 -43.982 -16.4503 -13.9712 1.77016 6.2862 42.8405 5.04373 24.8674 19.8728 -6.02491 -34.1783 -39.5012 32.3969 1.22327 12.9973 1.3075 -0.275834 26.3709 3.14113 -1.93882 -13.9427 30.0404 3.53113e-031 3.18055e-015 -6.36111e-015 -68.6649 -44.3174 -29.3932 -56.6476 14.8729 -51.3079 -15.4693 16.3446 -39.872 11.7297 3.9328 23.6211 79.0587 -28.1741 82.601 49.0744 56.5387 64.052 -13.7872 7.99686 12.3965 31.5551 -7.25744 -6.96265 -2.05278 19.4732 9.48075 -15.7246 25.3387 4.37356 -5.29387 -18.3869 -3.8967 
-127.225 90.6699 -134.827 -9.60037 -6.04301 -41.8827 -16.9386 -10.4868 5.47367 8.42644 43.4725 1.85848 24.6851 19.598 -5.92121 -32.5005 -37.4767 33.4903 1.21468 13.091 1.41464 -0.277715 26.5322 3.27047 -1.74567 -11.9257 26.8422 1.59028e-015 -3.18055e-015 6.36111e-015 -73.7836 -40.6429 -30.1855 -55.6465 17.6804 -51.5993 -12.8218 15.3353 -40.2092 12.4529 3.97787 22.865 80.89 -27.7936 83.9747 51.9628 54.5876 58.5556 -12.8369 7.41482 19.0557 30.3631 -10.5141 -6.31176 -2.77431 24.7056 4.61571 -18.0828 24.3474 4.91052 -6.39261 -20.6005 -7.21026 
-127.418 90.3708 -135.967 -9.62948 -6.69113 -40.2278 -16.8469 -6.60894 8.77579 10.0063 42.9883 1.1756 24.6395 17.2543 -5.41535 -30.5329 -34.679 33.8055 0.94981 13.2833 1.73411 -0.058776 26.8467 3.66874 -1.78676 -10.6605 23.6746 7.06225e-031 6.36111e-015 -6.36111e-015 -77.0238 -36.5124 -30.3267 -54.5514 19.4752 -52.5602 -10.6956 14.5069 -40.4239 13.1001 4.04702 22.4108 83.3083 -27.3416 85.3694 54.4023 53.0665 54.3787 -11.8344 7.05216 24.6654 29.313 -13.687 -6.07039 -3.79535 31.236 0.128683 -20.3369 22.1941 5.17831 -7.53876 -22.5805 -10.3413 
-127.613 89.7835 -137.039 -9.91835 -7.07339 -39.2716 -16.1849 -2.66323 10.8055 10.1581 41.3177 2.64172 23.4779 12.9789 -4.29979 -29.2763 -32.4504 32.2448 0.681276 13.5172 2.23356 0.373864 27.2117 4.3534 -2.1123 -10.1677 20.714 -1.59028e-015 -3.18055e-015 -3.18055e-015 -78.5005 -32.8157 -30.289 -54.0673 20.5945 -53.434 -9.42521 14.0134 -40.6066 13.6733 4.16933 22.3895 86.2129 -26.7173 86.8135 56.2839 52.1836 51.4568 -11.0051 6.87285 28.7622 28.6314 -16.3084 -5.95245 -5.16188 37.8604 -2.45494 -22.1172 20.0771 5.25313 -8.67542 -24.2491 -13.3313 
-127.808 88.9862 -138.016 -10.3831 -7.11791 -39.0706 -15.2761 0.986884 11.2919 9.23214 38.6606 5.0363 20.6051 7.54337 -2.82423 -29.0919 -31.4592 28.6366 0.616727 13.7106 2.84573 0.939143 27.5084 5.31998 -2.71774 -10.2656 18.0551 -3.18055e-015 0 -6.36111e-015 -78.3843 -29.7134 -30.3889 -54.1317 21.2117 -54.3864 -9.02105 13.8576 -40.6874 14.3117 4.38272 22.8005 89.3017 -25.9459 88.2016 57.5958 52.0704 49.7157 -10.5975 6.78047 31.0368 28.3738 -18.1295 -5.64609 -6.82775 43.6498 -2.18173 -23.2133 18.7994 5.27247 -10.0704 -26.1678 -16.4369 
-127.985 88.0683 -138.903 -10.9204 -6.81954 -39.5259 -14.504 3.94794 10.4707 8.27749 35.4964 7.38117 16.3732 1.90524 -1.48395 -29.0941 -30.6519 24.1211 0.815837 13.8082 3.51692 1.56859 27.6587 6.5373 -3.56092 -10.6652 15.7151 -1.59028e-015 0 3.18055e-015 -77.3198 -27.4962 -30.8838 -54.3625 21.7943 -55.5774 -9.14292 13.9034 -40.6501 15.2239 4.72224 23.524 92.22 -25.1792 89.3799 58.5103 52.7507 48.9769 -10.7222 6.69389 31.5251 28.4657 -19.1023 -5.06832 -8.61446 48.0484 1.07588 -23.1826 18.2326 5.15268 -11.9976 -28.8123 -19.623 
-128.093 87.1469 -139.715 -11.5014 -6.19149 -40.4687 -14.0039 5.88868 8.90397 7.99681 32.513 9.42386 11.9943 -2.96769 -0.635458 -28.3231 -29.1744 20.7763 1.189 13.8199 4.22568 2.27891 27.6811 7.91444 -4.5931 -11.0955 13.6809 1.76556e-031 3.18055e-015 -3.18055e-015 -76.2382 -26.4908 -31.9159 -54.3069 22.8332 -57.0907 -9.19047 13.915 -40.5727 16.5873 5.20715 24.3684 94.6099 -24.6083 90.1915 59.2765 54.1205 48.9861 -11.2807 6.6038 30.6256 28.7716 -19.3205 -4.39625 -10.1304 50.8816 6.38939 -21.5525 17.39 4.61856 -14.1987 -31.9504 -21.9781 
-128.067 86.3638 -140.441 -12.1724 -5.26278 -41.6837 -13.5665 6.70912 7.30134 8.30173 30.2632 11.2177 8.85897 -6.21842 -0.27465 -27.3622 -27.8341 19.3486 1.61232 13.8025 4.92563 3.1513 27.6726 9.24658 -5.75062 -11.4055 11.9881 0 0 -0 -75.9811 -26.9042 -33.462 -53.7056 24.5927 -58.9815 -8.55799 13.6519 -40.4941 18.4621 5.83225 25.1615 96.0762 -24.4418 90.4191 60.048 55.9503 49.5771 -12.0738 6.5385 28.9112 29.1294 -18.9668 -3.97363 -10.8158 52.2779 11.8529 -18.6194 15.2564 3.62741 -15.6082 -34.6339 -21.851 
-127.882 85.8399 -141.045 -12.9185 -4.14625 -42.8913 -12.9282 6.60266 6.32684 8.74181 28.8919 12.6133 7.6285 -7.52049 -0.18019 -27.1458 -27.5486 19.108 2.02042 13.8021 5.47789 4.20696 27.7121 10.1982 -6.92242 -11.6016 10.7877 0 0 -6.36111e-015 -76.9894 -28.781 -35.3305 -52.653 27.0259 -61.2504 -7.01614 13.0146 -40.3013 20.78 6.57747 25.8451 96.1268 -24.9542 89.7282 60.7163 57.8931 50.8664 -12.9566 6.51167 26.849 29.3357 -18.2711 -4.14724 -10.2129 52.4975 15.5463 -15.7361 12.0617 2.6229 -15.4552 -36.0701 -18.8402 
-127.58 85.6388 -141.526 -13.5584 -3.11177 -43.8105 -12.1574 5.94769 6.2869 9.03244 28.2208 13.4026 8.07603 -7.37925 -0.189858 -27.5368 -28.0565 19.4657 2.38408 13.8276 5.69956 5.28381 27.8034 10.4466 -7.91055 -11.7939 10.2736 0 3.18055e-015 -0 -79.2364 -31.9669 -37.3134 -51.5958 29.8468 -63.7268 -4.86632 12.1254 -39.8527 23.4554 7.42015 26.4011 94.1209 -26.3771 87.7096 60.7139 59.5603 53.3985 -13.8919 6.52293 24.6221 29.1601 -17.4786 -5.09072 -8.43061 51.8239 16.857 -14.225 9.35093 2.04115 -14.4768 -36.473 -14.9878 
-127.233 85.7917 -141.939 -13.8395 -2.49829 -44.3056 -11.6173 5.15592 6.95475 9.10215 27.9198 13.6881 9.43966 -6.70424 -0.244908 -27.6158 -28.2638 20.3791 2.63637 13.8726 5.51962 6.07389 27.913 9.93597 -8.43961 -12.0747 10.4651 3.18055e-015 6.36111e-015 -6.36111e-015 -82.4275 -36.0248 -39.4389 -51.1475 32.6843 -65.9744 -2.71515 11.2486 -39.2499 26.4347 8.29305 26.6533 89.361 -28.5445 83.9404 58.8983 60.625 58.1766 -14.8616 6.59096 22.1714 28.4962 -16.801 -6.71804 -6.47565 50.5277 16.7523 -14.288 8.45444 1.9447 -13.7752 -36.6161 -12.4481 
-126.861 86.3107 -142.338 -13.638 -2.4448 -44.4742 -11.5505 4.50433 7.78089 8.85324 27.6166 13.883 10.9194 -6.12746 -0.309059 -26.6032 -27.1798 21.8015 2.7383 13.9156 5.03702 6.33725 27.9942 8.93799 -8.29058 -12.4047 11.1609 1.59028e-015 -3.18055e-015 -6.36111e-015 -86.1981 -40.3196 -41.9287 -51.8314 35.1875 -67.4152 -1.17021 10.6346 -38.8506 29.5417 9.05204 26.3716 81.5104 -30.6983 78.073 54.1202 60.7525 66.1197 -15.7427 6.77739 19.2905 27.5736 -16.4149 -8.63516 -5.72192 48.8988 16.7036 -15.2186 9.54729 2.21506 -13.5546 -36.6535 -11.6577 
-126.429 87.1691 -142.724 -13.0082 -2.77113 -44.5931 -11.8841 4.0162 8.27108 8.1158 27.0116 14.4155 12.1047 -5.73915 -0.363964 -24.3953 -24.4757 23.4166 2.67793 13.9095 4.4406 6.043 27.9694 7.83451 -7.47967 -12.6299 12.1721 4.77083e-015 0 -0 -90.087 -44.3258 -44.8328 -53.8565 37.0067 -67.6883 -0.700407 10.4537 -38.9816 32.3599 9.54855 25.5866 71.2485 -31.7492 70.2304 46.5995 59.5186 76.7102 -16.2929 7.15489 15.7835 26.8327 -16.4193 -10.1173 -6.67916 47.1438 17.2852 -16.2629 12.1269 2.7236 -13.4801 -36.1786 -12.099 
-125.9 88.2755 -143.056 -12.097 -3.14558 -44.96 -12.3931 3.48898 8.23004 6.89536 26.0193 15.3578 12.9792 -5.23635 -0.432963 -21.4826 -20.5662 24.8329 2.43755 13.808 3.89974 5.32486 27.7611 6.90531 -6.29033 -12.6265 13.4597 4.77083e-015 -3.18055e-015 -3.18055e-015 -93.5506 -47.7967 -47.9188 -56.985 37.792 -66.8855 -1.55138 10.8033 -39.7543 34.3952 9.7086 24.5433 60.5731 -30.892 61.5694 38.4376 56.8347 87.4199 -16.2838 7.71703 11.7492 26.5711 -16.7375 -10.3618 -8.51698 45.3246 17.7328 -17.1752 15.6162 3.38545 -13.2694 -34.9022 -13.3132 
-125.267 89.498 -143.301 -11.0566 -3.33274 -45.727 -12.8842 2.67496 7.7372 5.46763 24.8216 16.2603 13.67 -4.16509 -0.569458 -18.615 -16.4324 25.8458 1.99023 13.604 3.50377 4.3567 27.3569 6.25721 -5.10313 -12.4017 15.0397 3.53113e-031 -3.18055e-015 6.36111e-015 -96.2176 -50.6807 -50.9343 -60.6809 37.3448 -65.4053 -3.70964 11.7185 -41.0535 35.3206 9.54161 23.4735 51.8521 -28.2652 53.8695 31.7864 53.4182 95.6742 -15.6889 8.34379 7.64283 26.7547 -17.1331 -8.99112 -9.84624 43.486 16.6821 -18.2192 19.4188 4.18573 -12.7994 -32.8387 -15.0062 
-124.558 90.7031 -143.462 -10.0404 -3.27641 -46.8289 -13.1816 1.43894 6.9425 4.15278 23.8857 16.3486 14.259 -2.14773 -0.826661 -16.5598 -13.2963 26.5948 1.39503 13.3223 3.22893 3.31076 26.8051 5.81832 -4.17437 -12.0354 16.9059 -0 0 1.27222e-014 -98.0812 -53.0911 -53.8067 -64.5135 35.7552 -63.5844 -6.96382 13.1667 -42.544 35.1089 9.15615 22.5997 46.2118 -24.8559 48.1975 27.2918 50.3083 100.665 -14.7178 8.88366 4.06391 27.1411 -17.3908 -6.39847 -9.83603 41.6987 13.2826 -19.722 22.749 5.10789 -12.0072 -30.2195 -16.7053 
-123.808 91.7812 -143.575 -9.20436 -3.07262 -48.0554 -13.1332 -0.184975 5.95349 3.11511 23.8558 14.9414 14.6659 1.03228 -1.23317 -16.0676 -12.4059 27.4515 0.775219 13.0047 2.97793 2.3194 26.1852 5.4064 -3.53415 -11.5691 19.0234 -3.18055e-015 -9.54166e-015 -0 -99.3345 -55.2747 -56.5675 -68.3542 33.2977 -61.534 -11.0063 15.0291 -43.793 34.0543 8.74519 22.1785 43.2545 -21.7829 44.584 24.6996 48.1693 102.78 -13.6865 9.24355 1.53959 27.4842 -17.3967 -3.64348 -8.67024 39.9177 7.95147 -21.474 24.7465 5.95393 -10.9126 -27.4153 -17.7488 
-123.056 92.6356 -143.694 -8.67445 -2.92239 -49.184 -12.7413 -2.00611 4.91537 2.43574 25.3001 11.8606 14.7102 5.35864 -1.76229 -17.7646 -14.8557 28.5815 0.221754 12.7062 2.66363 1.4183 25.5975 4.8617 -3.03132 -10.9799 21.2921 3.18055e-015 4.77083e-015 6.36111e-015 -99.9404 -57.3663 -59.0478 -72.1157 30.2362 -59.365 -15.4766 17.1019 -44.524 32.6461 8.49323 22.4078 41.9557 -19.8532 42.6894 23.7294 47.1962 102.587 -12.8678 9.40946 0.359687 27.6232 -17.0907 -1.94598 -7.16241 38.056 2.4624 -22.5894 24.9861 6.32575 -9.72796 -24.9001 -17.7656 
-122.336 93.161 -143.861 -8.50405 -3.04344 -50.0402 -12.2353 -3.71528 4.06921 2.30055 28.4225 7.64819 14.5019 10.2724 -2.32547 -21.5708 -20.6352 29.484 -0.244691 12.4772 2.2596 0.568872 25.1334 4.13315 -2.49037 -10.1972 23.5113 -1.59028e-015 9.54166e-015 9.54166e-015 -99.4258 -59.1457 -60.689 -75.5276 26.773 -57.3505 -19.9627 19.1532 -44.7786 31.2978 8.48427 23.3177 41.5508 -19.4452 42.2791 24.3059 47.2902 100.444 -12.4256 9.40627 0.569322 27.4678 -16.4742 -2.06063 -5.993 36.1667 -0.903791 -22.232 23.8697 6.00628 -8.78624 -23.1648 -16.946 
-121.664 93.2689 -144.079 -8.66817 -3.55087 -50.4877 -11.9081 -4.92646 3.62413 3.03394 32.8498 3.43025 14.6798 14.6081 -2.87924 -26.4017 -27.7839 29.4046 -0.629561 12.34 1.79885 -0.239634 24.8388 3.2782 -1.86737 -9.11942 25.3843 -4.41391e-031 -7.95139e-015 -3.18055e-015 -97.2618 -60.0488 -60.8365 -78.3557 23.0162 -55.7359 -24.204 21.0492 -44.726 30.0953 8.66509 24.7529 42.017 -20.5656 43.3218 26.4741 48.2166 96.4418 -12.4313 9.2498 2.11058 26.9772 -15.667 -3.91524 -5.25379 34.4294 -0.787084 -20.3749 22.2517 5.19851 -8.23124 -22.3648 -15.669 
